<svg width="80" height="17" viewBox="0 0 80 17" fill="none" xmlns="http://www.w3.org/2000/svg">
<path d="M14.7875 1.60979L14.107 4.5294H9.43121L6.75307 16.0981H2.97733L5.65547 4.5294H0.935801L1.61631 1.60979H14.7875ZM13.067 16.0981L16.6891 0.468284H20.4209L18.7745 7.62462L18.4013 8.15147C18.5916 7.53682 18.877 6.98802 19.2575 6.50507C19.638 6.02213 20.1136 5.63431 20.6843 5.34162C21.2551 5.04893 21.9063 4.90258 22.6381 4.90258C23.3698 4.90258 23.9918 5.07088 24.504 5.40748C25.0308 5.74407 25.3967 6.2197 25.6016 6.83435C25.8211 7.44901 25.8357 8.18074 25.6455 9.02955L23.9991 16.0981H20.2673L21.7819 9.62225C21.9136 9.03687 21.8624 8.58319 21.6283 8.26123C21.3941 7.92463 21.0136 7.75634 20.4868 7.75634C20.0916 7.75634 19.7404 7.85146 19.4331 8.04171C19.1404 8.21733 18.8843 8.48807 18.6648 8.85393C18.4599 9.20517 18.2989 9.64421 18.1818 10.1711L16.7988 16.0981H13.067ZM32.6344 16.2957C31.5515 16.2957 30.6002 16.0908 29.7807 15.681C28.9611 15.2566 28.3245 14.6712 27.8709 13.9248C27.4172 13.1785 27.1904 12.3077 27.1904 11.3126C27.1904 10.0832 27.4391 8.99296 27.9367 8.04171C28.4489 7.07583 29.166 6.31482 30.088 5.75871C31.0246 5.20259 32.1369 4.92453 33.4247 4.92453C34.493 4.92453 35.4004 5.12942 36.1468 5.53919C36.9078 5.93432 37.4858 6.49776 37.881 7.22949C38.2761 7.96122 38.4737 8.82467 38.4737 9.81982C38.4737 10.0979 38.459 10.3906 38.4298 10.6979C38.4005 11.0052 38.342 11.3052 38.2541 11.5979H29.6051V9.57835H35.8175L34.7857 10.1491C34.8443 9.94422 34.8809 9.7686 34.8955 9.62225C34.9101 9.47591 34.9174 9.33688 34.9174 9.20517C34.9174 8.82467 34.8516 8.51002 34.7199 8.26123C34.5882 8.01244 34.4052 7.82951 34.1711 7.71243C33.9369 7.58072 33.6589 7.51486 33.3369 7.51486C32.8101 7.51486 32.371 7.63926 32.0198 7.88805C31.6832 8.13684 31.4124 8.46612 31.2076 8.87589C31.0027 9.27102 30.8563 9.70274 30.7685 10.1711C30.6953 10.6394 30.6588 11.093 30.6588 11.5321C30.6588 12.0004 30.7466 12.3955 30.9222 12.7175C31.1124 13.0394 31.3612 13.2882 31.6686 13.4638C31.9905 13.6248 32.3637 13.7053 32.7881 13.7053C33.315 13.7053 33.7394 13.5882 34.0613 13.3541C34.3833 13.1053 34.6321 12.798 34.8077 12.4321L37.881 13.6395C37.6322 14.1956 37.2444 14.6712 36.7175 15.0663C36.2053 15.4615 35.598 15.7688 34.8955 15.9883C34.2077 16.1932 33.454 16.2957 32.6344 16.2957ZM40.8232 16.0981V1.60979H47.8698C49.6552 1.62442 50.9723 1.96833 51.8211 2.64153C52.67 3.30009 53.0944 4.25866 53.0944 5.51724C53.0944 6.33678 52.8529 7.04656 52.3699 7.64658C51.887 8.23196 51.1479 8.60515 50.1528 8.76613V8.78808C51.265 8.93443 52.0919 9.32224 52.6334 9.95153C53.1895 10.5662 53.4675 11.3126 53.4675 12.1906C53.4675 13.4346 53.0285 14.4005 52.1504 15.0883C51.2723 15.7615 49.9552 16.0981 48.1991 16.0981H40.8232ZM44.4672 13.4419H47.5625C48.2503 13.4419 48.7625 13.3029 49.0991 13.0248C49.4357 12.7467 49.604 12.3443 49.604 11.8175C49.604 11.3052 49.4357 10.9174 49.0991 10.654C48.7625 10.3759 48.2503 10.2369 47.5625 10.2369H44.4672V13.4419ZM44.4672 7.53682H47.2112C48.5576 7.53682 49.2308 7.00997 49.2308 5.95628C49.2308 4.90258 48.5576 4.37573 47.2112 4.37573H44.4672V7.53682ZM60.7906 4.90258C61.9467 4.90258 62.9565 5.12942 63.8199 5.58309C64.698 6.02213 65.3785 6.67337 65.8615 7.53682C66.3591 8.38563 66.6078 9.41005 66.6078 10.6101C66.6078 11.8101 66.3591 12.8419 65.8615 13.7053C65.3785 14.5541 64.698 15.2054 63.8199 15.659C62.9565 16.0981 61.9467 16.3176 60.7906 16.3176C59.6637 16.3176 58.6612 16.0981 57.7832 15.659C56.9051 15.2054 56.2173 14.5541 55.7197 13.7053C55.2367 12.8419 54.9953 11.8101 54.9953 10.6101C54.9953 9.41005 55.2367 8.38563 55.7197 7.53682C56.2173 6.67337 56.9051 6.02213 57.7832 5.58309C58.6612 5.12942 59.6637 4.90258 60.7906 4.90258ZM60.7906 7.55877C60.3662 7.55877 60.0003 7.66121 59.693 7.8661C59.3857 8.07098 59.1515 8.40026 58.9905 8.85393C58.8295 9.30761 58.749 9.89299 58.749 10.6101C58.749 11.3272 58.8295 11.9126 58.9905 12.3662C59.1515 12.8053 59.3857 13.1346 59.693 13.3541C60.0003 13.559 60.3662 13.6614 60.7906 13.6614C61.2296 13.6614 61.6028 13.559 61.9101 13.3541C62.2175 13.1346 62.4516 12.8053 62.6126 12.3662C62.7736 11.9126 62.8541 11.3272 62.8541 10.6101C62.8541 9.89299 62.7736 9.30761 62.6126 8.85393C62.4516 8.40026 62.2175 8.07098 61.9101 7.8661C61.6028 7.66121 61.2296 7.55877 60.7906 7.55877ZM71.3339 5.1221L74.012 10.0613L75.2413 9.95153L79.5659 16.0981H75.2852L72.5193 11.093H71.2241L67.0313 5.1221H71.3339ZM79.478 5.1221L75.3291 11.0491L73.9462 10.9613L71.0704 16.0981H66.8776L71.29 9.90763L72.5632 10.0832L75.2852 5.1221H79.478Z" fill="#2947A9"/>
</svg>
